<svg width="54" height="50" viewBox="0 0 54 50" fill="none" xmlns="http://www.w3.org/2000/svg">
<g clip-path="url(#clip0)">
<path d="M53.4189 45.6521C53.4189 48.0533 51.3391 50 48.7738 50H4.64515C2.07969 50 0 48.0533 0 45.6521C0 43.251 2.07969 41.3043 4.64515 41.3043H48.7739C51.3392 41.3044 53.4189 43.251 53.4189 45.6521Z" fill="#A5A5A5"/>
<path d="M17.7095 46.7392C17.7095 47.1894 17.3195 47.5544 16.8385 47.5544H7.54835C7.06737 47.5544 6.67737 47.1894 6.67737 46.7392C6.67737 46.289 7.06737 45.9239 7.54835 45.9239H16.8385C17.3196 45.9239 17.7095 46.2889 17.7095 46.7392ZM45.8706 45.9239H28.4514C27.9705 45.9239 27.5804 46.289 27.5804 46.7392C27.5804 47.1894 27.9705 47.5544 28.4514 47.5544H45.8707C46.3517 47.5544 46.7417 47.1894 46.7417 46.7392C46.7417 46.289 46.3516 45.9239 45.8706 45.9239ZM24.503 45.9239H24.3869C23.9059 45.9239 23.5159 46.289 23.5159 46.7392C23.5159 47.1894 23.9059 47.5544 24.3869 47.5544H24.503C24.984 47.5544 25.374 47.1894 25.374 46.7392C25.374 46.289 24.984 45.9239 24.503 45.9239ZM20.9031 45.9239H20.787C20.306 45.9239 19.916 46.289 19.916 46.7392C19.916 47.1894 20.306 47.5544 20.787 47.5544H20.9031C21.3841 47.5544 21.7741 47.1894 21.7741 46.7392C21.7741 46.289 21.3841 45.9239 20.9031 45.9239Z" fill="#777777"/>
<path d="M49.9351 15.2174V39.1305C49.9351 41.5317 47.8553 43.4783 45.29 43.4783H8.12898C5.56362 43.4783 3.48383 41.5317 3.48383 39.1305V15.2174C3.48383 12.8162 5.56351 10.8695 8.12898 10.8695H45.29C47.8553 10.8695 49.9351 12.8162 49.9351 15.2174Z" fill="#CCCAC4"/>
<path d="M45.29 41.3044H8.12897C6.84619 41.3044 5.8064 40.3312 5.8064 39.1305V15.2174C5.8064 14.0167 6.84619 13.0435 8.12897 13.0435H45.29C46.5728 13.0435 47.6126 14.0167 47.6126 15.2174V39.1305C47.6126 40.3311 46.5728 41.3044 45.29 41.3044Z" fill="#F2EFE2"/>
<path d="M42.3868 19.8369H11.0321C10.0702 19.8369 9.29019 19.1069 9.29019 18.2064C9.29019 17.306 10.0701 16.576 11.0321 16.576H42.3868C43.3487 16.576 44.1287 17.3059 44.1287 18.2064C44.1287 19.1069 43.3487 19.8369 42.3868 19.8369ZM25.5482 23.9131C25.5482 23.0127 24.7683 22.2826 23.8063 22.2826H11.0321C10.0702 22.2826 9.29019 23.0126 9.29019 23.9131C9.29019 24.8135 10.0701 25.5435 11.0321 25.5435H23.8063C24.7683 25.5434 25.5482 24.8135 25.5482 23.9131ZM44.1287 23.9131C44.1287 23.0127 43.3488 22.2826 42.3868 22.2826H29.6127C28.6507 22.2826 27.8707 23.0126 27.8707 23.9131C27.8707 24.8135 28.6506 25.5435 29.6127 25.5435H42.3868C43.3488 25.5434 44.1287 24.8135 44.1287 23.9131Z" fill="#BFBBA3"/>
<path d="M42.3868 37.5H11.0321C10.0702 37.5 9.29019 36.77 9.29019 35.8695V29.3478C9.29019 28.4474 10.0701 27.7173 11.0321 27.7173H42.3868C43.3487 27.7173 44.1287 28.4473 44.1287 29.3478V35.8695C44.1287 36.77 43.3488 37.5 42.3868 37.5Z" fill="#FFD880"/>
<path d="M14.5742 36.5459L14.3309 36.7736L14.3398 36.782L12.3473 38.6471C12.2043 38.7809 12.0104 38.856 11.8082 38.856C11.606 38.856 11.412 38.7809 11.2691 38.6471L9.27653 36.782L9.2855 36.7736L9.04219 36.5459C8.34556 35.8938 8.34556 34.8368 9.04219 34.1847C9.73883 33.5326 10.8681 33.5326 11.5649 34.1847L11.8082 34.4124L12.0515 34.1847C12.7481 33.5326 13.8774 33.5326 14.5742 34.1847C15.2708 34.8367 15.2708 35.8938 14.5742 36.5459Z" fill="#FC8059"/>
<path d="M39.2514 28.5508L36.9288 31.4494C36.4643 32.0291 35.5352 32.0291 35.0707 31.4494L32.7481 28.5508C32.5974 28.3626 32.5159 28.1338 32.5159 27.8986V2.17393C32.5159 0.973242 33.5557 0 34.8384 0H37.161C38.4438 0 39.4836 0.973242 39.4836 2.17393V27.8986C39.4836 28.1337 39.402 28.3626 39.2514 28.5508Z" fill="#D6A154"/>
<path d="M38.6126 29.3479L36.9288 31.4492C36.4643 32.0289 35.5352 32.0289 35.0707 31.4492L33.3868 29.3479H38.6126Z" fill="#B26932"/>
<path d="M32.5159 25V2.17393C32.5159 0.973242 33.5557 0 34.8384 0H37.161C38.4438 0 39.4836 0.973242 39.4836 2.17393V25H32.5159Z" fill="#FFD880"/>
<path d="M35.9997 25V0H37.1609C38.4437 0 39.4835 0.973242 39.4835 2.17393V25H35.9997Z" fill="#FCC159"/>
<path d="M39.4836 2.17393V4.34785H32.5159V2.17393C32.5159 0.973242 33.5557 0 34.8384 0H37.161C38.4438 0 39.4836 0.973242 39.4836 2.17393Z" fill="#FC8059"/>
</g>
<defs>
<clipPath id="clip0">
<rect width="53.4189" height="50" fill="white"/>
</clipPath>
</defs>
</svg>
